# AST/ASF file generated using VICON BodyLanguage
# -----------------------------------------------
:version 1.10
:name VICON
:units
  mass 1.0
  length 0.45
  angle deg
:documentation
   .ast/.asf automatically generated from VICON data using
   VICON BodyBuilder and BodyLanguage model FoxedUp or BRILLIANT.MOD
:root
   order TX TY TZ RX RY RZ
   axis XYZ
   position 0 0 0  
   orientation 0 0 0 
:bonedata
  begin
     id 1 
     name lhipjoint
     direction 0.566809 -0.746272 0.349008 
     length 2.40479 
     axis 0 0 0  XYZ
  end
  begin
     id 2 
     name lfemur
     direction 0.34202 -0.939693 0  
     length 7.1578  
     axis 0 0 20  XYZ
    dof rx ry rz
    limits (-160.0 20.0)
           (-70.0 70.0)
           (-60.0 70.0)
  end
  begin
     id 3 
     name ltibia
     direction 0.34202 -0.939693 0   
     length 7.49137   
     axis 0 0 20   XYZ
    dof rx
    limits (-10.0 170.0)
  end
  begin
     id 4 
     name lfoot
     direction 0.0665746 -0.182912 0.980873   
     length 2.36784   
     axis -90 7.62852e-016 20   XYZ
    dof rx rz
    limits (-45.0 90.0)
           (-70.0 20.0)
  end
  begin
     id 5 
     name ltoes
     direction 1.53601e-011 -4.22058e-011 1   
     length 1.18966   
     axis -90 7.62852e-016 20   XYZ
    dof rx
    limits (-90.0 20.0)
  end
  begin
     id 6 
     name rhipjoint
     direction -0.550236 -0.756381 0.353735   
     length 2.37265  
     axis 0 0 0  XYZ 
  end
  begin
     id 7 
     name rfemur
     direction -0.34202 -0.939693 0   
     length 7.43386   
     axis 0 0 -20   XYZ
    dof rx ry rz
    limits (-160.0 20.0)
           (-70.0 70.0)
           (-70.0 60.0)
  end
  begin
     id 8 
     name rtibia
     direction -0.34202 -0.939693 0   
     length 7.50908   
     axis 0 0 -20   XYZ
    dof rx
    limits (-10.0 170.0)
 end
 begin
     id 9 
     name rfoot
     direction -0.0683029 -0.187661 0.979856   
     length 2.41173  
     axis -90 -7.62852e-016 -20   XYZ
    dof rx rz
    limits (-45.0 90.0)
           (-20.0 70.0)
  end
  begin
     id 10 
     name rtoes
     direction -1.53528e-011 -4.21968e-011 1   
     length 1.21082   
     axis -90 -7.62852e-016 -20   XYZ
    dof rx
    limits (-90.0 20.0)
  end
  begin
     id 11 
     name lowerback
     direction 0.013823 0.995423 -0.0945635   
     length 2.04495   
     axis 0 0 0   XYZ
    dof rx ry rz
    limits (-20.0 45.0)
           (-30.0 30.0)
           (-30.0 30.0)
  end
  begin
     id 12 
     name upperback
     direction 0.0276657 0.9994 -0.020853   
     length 2.05008   
     axis 0 0 0   XYZ
    dof rx ry rz
    limits (-20.0 45.0)
           (-30.0 30.0)
           (-30.0 30.0)
  end
  begin
     id 13 
     name thorax
     direction 0.019782 0.999531 0.0233827   
     length 2.06488   
     axis 0 0 0   XYZ
    dof rx ry rz
    limits (-20.0 45.0)
           (-30.0 30.0)
           (-30.0 30.0)
  end
  begin
     id 14 
     name lowerneck
     direction -0.0308541 0.994709 0.0979874   
     length 1.75553   
     axis 0 0 0   XYZ
    dof rx ry rz
    limits (-20.0 45.0)
           (-30.0 30.0)
           (-30.0 30.0)
  end
  begin
     id 15 
     name upperneck
     direction 0.0588398 0.995804 -0.0700903   
     length 1.76878   
     axis 0 0 0   XYZ
    dof rx ry rz
    limits (-20.0 45.0)
           (-30.0 30.0)
           (-30.0 30.0)
  end
  begin
     id 16
     name head
     direction 0.0209966 0.999159 -0.0352225  
     length 1.77193  
     axis 0 0 0   XYZ
    dof rx ry rz
    limits (-20.0 45.0)
           (-30.0 30.0)
           (-30.0 30.0)
  end
  begin
     id 17 
     name lclavicle
     direction 0.938182 0.335073 -0.0868338  
     length 3.58396  
     axis 0 0 0   XYZ
    dof ry rz
    limits (-20.0 10.0)
           (0.0 20.0)
  end
  begin
     id 18 
     name lhumerus
     direction 1 -4.48971e-011 -1.26313e-017   
     length 4.983   
     axis 180 -30 -90   XYZ
    dof rx ry rz
    limits (-60.0 90.0)
           (-90.0 90.0)
           (-90.0 90.0)
  end
  begin
     id 19
     name lradius
     direction 1 -4.48948e-011 -5.89033e-027   
     length 3.48356   
     axis 180 -30 -90   XYZ
    dof rx
    limits (-10.0 170.0)
  end
  begin
     id 20
     name lwrist
     direction 1 -4.48977e-011 -1.48983e-026   
     length 1.74178   
     axis 9.0955e-015 90 90   XYZ
    dof ry
    limits (-180.0 0.0)
 end
  begin
     id 21 
     name lhand
     direction 1 -4.49046e-011 -2.98066e-026   
     length 0.715259   
     axis 1.90115e-014 90 90   XYZ
    dof rx rz
    limits (-90.0 90.0)
           (-45.0 45.0)
  end
  begin
     id 22 
     name lfingers
     direction 1 -4.48907e-011 -5.95731e-026   
     length 0.576661   
     axis 3.80223e-014 90 90   XYZ
    dof rx
    limits (0.0 90.0)
  end
  begin
     id 23
     name lthumb
     direction 0.707107 -6.34963e-011 0.707107   
     length 0.827973   
     axis -90 45 -3.84942e-014   XYZ
    dof rx rz
    limits (-45.0 45.0)
           (-45.0 45.0)
  end
  begin
     id 24 
     name rclavicle
     direction -0.909637 0.398485 -0.11735   
     length 3.44819  
     axis 0 0 0   XYZ 
    dof ry rz
    limits (-10.0 20.0)
           (-20.0 0.0)
  end
  begin
     id 25 
     name rhumerus
     direction -1 -4.48978e-011 -1.09333e-027  
     length 5.2419   
     axis 180 30 90   XYZ
    dof rx ry rz
    limits (-90.0 60.0)
           (-90.0 90.0)
           (-90.0 90.0)
  end
  begin
     id 26 
     name rradius
     direction -1 -4.48953e-011 -7.61841e-027   
     length 3.44417   
     axis 180 30 90   XYZ
    dof rx
    limits (-10.0 170.0)
  end
  begin
     id 27 
     name rwrist
     direction -1 -4.48977e-011 -1.48983e-026   
     length 1.72209   
     axis 9.0955e-015 -90 -90   XYZ
    dof ry
    limits (-180.0 0.0)
  end
  begin
     id 28
     name rhand
     direction -1 -4.49027e-011 -2.98038e-026   
     length 0.622529   
     axis 1.90115e-014 -90 -90   XYZ
    dof rx rz
    limits (-90.0 90.0)
           (-45.0 45.0)
  end
  begin
     id 29
     name rfingers
     direction -1 -4.48838e-011 -5.95531e-026   
     length 0.501899   
     axis 3.80223e-014 -90 -90   XYZ
    dof rx
    limits (0.0 90.0)
  end
  begin
     id 30
     name rthumb
     direction -0.707107 -6.34937e-011 0.707107   
     length 0.720629   
     axis -90 -45 3.84942e-014   XYZ
    dof rx rz
    limits (-45.0 45.0)
           (-45.0 45.0)
  end
:hierarchy
  begin
    root lhipjoint rhipjoint lowerback
    lhipjoint lfemur
    lfemur ltibia
    ltibia lfoot
    lfoot ltoes
    rhipjoint rfemur
    rfemur rtibia
    rtibia rfoot
    rfoot rtoes
    lowerback upperback
    upperback thorax
    thorax lowerneck lclavicle rclavicle
    lowerneck upperneck
    upperneck head
    lclavicle lhumerus
    lhumerus lradius
    lradius lwrist
    lwrist lhand lthumb
    lhand lfingers
    rclavicle rhumerus
    rhumerus rradius
    rradius rwrist
    rwrist rhand rthumb
    rhand rfingers
  end

#!OML:ASF H:\Terrain\Patient Classification 1\PLAYGROUND\JustinFriday\JustinFriday.ASF
:FULLY-SPECIFIED
:DEGREES
735
root -13.1017 30.2876 -8.74886 301.402 85.1094 -88.9378
lowerback 23.5558 -0.533122 0.94006
upperback 7.86476 0.226367 2.05332
thorax -4.49364 0.321113 1.60161
lowerneck -4.73173 1.43709 -5.49448
upperneck -17.9759 3.41031 5.39873
head -4.78845 2.06418 2.48185
rclavicle -3.06128e-014 -5.64548e-014
rhumerus -5.9998 30.2931 -81.1498
rradius 60.4411
rwrist 24.0704
rhand -37.4651 5.97453
rfingers 7.12502
rthumb -10.5233 -23.742
lclavicle -3.06128e-014 -5.64548e-014
lhumerus -12.7001 -21.5432 79.2453
lradius 66.4239
lwrist -34.3235
lhand -22.0423 -26.5155
lfingers 7.12502
lthumb 4.36792 3.41945
rfemur -27.9607 7.47061 27.2191
rtibia 35.0102
rfoot -41.764 -14.8835
rtoes 6.10749
lfemur -28.1345 6.45543 -14.1185
ltibia 38.6744
lfoot -35.5453 -1.34786
ltoes -6.52307
736
root -13.0584 30.2643 -8.71914 300.078 84.6904 -90.1092
lowerback 23.3685 -0.258507 0.122681
upperback 7.85447 0.456744 2.91709
thorax -4.42409 0.420038 2.94349
lowerneck -3.79971 0.702819 -6.34845
upperneck -18.5321 2.34189 5.50832
head -5.0624 1.55826 2.68951
rclavicle 5.1684e-015 1.98785e-015
rhumerus -6.19219 30.7731 -80.7083
rradius 59.8956
rwrist 24.3145
rhand -37.6748 5.93535
rfingers 7.12502
rthumb -10.7256 -23.7709
lclavicle 5.1684e-015 1.98785e-015
lhumerus -13.4628 -21.4459 80.3729
lradius 66.4802
lwrist -33.9235
lhand -21.8701 -26.454
lfingers 7.12502
lthumb 4.53416 3.47745
rfemur -27.5922 8.58152 27.6077
rtibia 34.9587
rfoot -41.545 -16.2245
rtoes 4.94858
lfemur -28.2215 11.9794 -14.3508
ltibia 38.581
lfoot -35.2868 -6.06752
ltoes -7.97621
737
root -13.0126 30.2605 -8.69687 304.896 84.0384 -85.3673
lowerback 23.1434 0.0705657 1.05154
upperback 7.7058 1.01485 2.3558
thorax -4.48111 0.692938 1.65582
lowerneck -3.38171 -0.563136 -6.10308
upperneck -18.6462 0.730955 6.73822
head -5.05586 0.659075 3.09268
rclavicle 1.92821e-014 2.3059e-014
rhumerus -6.8606 29.1662 -82.1048
rradius 59.4765
rwrist 24.8028
rhand -37.772 6.01676
rfingers 7.12502
rthumb -10.8193 -23.6846
lclavicle 1.92821e-014 2.3059e-014
lhumerus -13.5283 -21.9859 80.2471
lradius 65.6227
lwrist -34.5378
lhand -21.978 -27.449
lfingers 7.12502
lthumb 4.43002 2.48464
rfemur -27.3719 9.08646 28.2353
rtibia 34.7446
rfoot -41.9924 -15.2186
rtoes 7.06958
lfemur -27.647 10.7108 -13.4748
ltibia 38.3271
lfoot -35.3879 -3.76232
ltoes -8.73988
738
root -12.9738 30.2654 -8.73231 299.116 83.5347 -91.0849
lowerback 23.0792 -0.56592 2.1389
upperback 7.7877 0.45551 2.50178
thorax -4.34082 0.433419 1.33937
lowerneck -3.30769 -1.0402 -4.7146
upperneck -18.9356 -0.188949 4.99881
head -5.11808 0.203745 2.34114
rclavicle 3.97569e-015 -9.93923e-016
rhumerus -6.43672 29.83 -82.4236
rradius 58.892
rwrist 24.9226
rhand -37.8672 6.86694
rfingers 7.12502
rthumb -10.9112 -22.8296
lclavicle 3.97569e-015 -9.93923e-016
lhumerus -13.7869 -20.9843 80.3923
lradius 65.465
lwrist -34.7095
lhand -22.1023 -27.4541
lfingers 7.12502
lthumb 4.31001 2.48206
rfemur -27.1153 8.76283 28.886
rtibia 34.598
rfoot -41.227 -17.2469
rtoes 3.15849
lfemur -27.2339 8.10254 -12.5042
ltibia 38.1884
lfoot -35.578 -1.57194
ltoes -7.63696
739
root -12.9448 30.2695 -8.73748 297.867 83.9755 -92.2663
lowerback 23.1865 -0.579746 1.88939
upperback 7.74023 0.382129 2.42331
thorax -4.44641 0.395838 1.41659
lowerneck -3.30769 -1.0402 -4.7146
upperneck -18.9356 -0.188949 4.99881
head -5.11808 0.203745 2.34114
rclavicle 1.03368e-014 1.25234e-014
rhumerus -7.12826 29.6854 -82.2546
rradius 59.3282
rwrist 24.6813
rhand -38.0213 7.50544
rfingers 7.12502
rthumb -11.0598 -22.1832
lclavicle 1.03368e-014 1.25234e-014
lhumerus -13.7454 -21.2265 80.6362
lradius 65.0829
lwrist -34.8437
lhand -22.1959 -27.4592
lfingers 7.12502
lthumb 4.2196 2.47879
rfemur -26.9935 8.53661 28.5592
rtibia 34.5612
rfoot -42.1241 -15.9039
rtoes 7.46008
lfemur -26.7889 6.33866 -12.6668
ltibia 37.728
lfoot -35.6054 -0.591121
ltoes -5.42808
740
root -12.9107 30.2801 -8.74886 299.087 84.6174 -90.9219
lowerback 23.4606 -0.805054 1.40142
upperback 7.7044 -0.0190878 2.21271
thorax -4.61639 0.19946 1.57585
lowerneck -3.30769 -1.0402 -4.7146
upperneck -18.9356 -0.188949 4.99881
head -5.11808 0.203745 2.34114
rclavicle -1.74931e-014 -3.12092e-014
rhumerus -7.24142 30.4341 -82.4006
rradius 59.438
rwrist 24.5706
rhand -37.9533 6.79551
rfingers 7.12502
rthumb -10.9942 -22.8966
lclavicle -1.74931e-014 -3.12092e-014
lhumerus -13.9841 -20.7878 80.6368
lradius 64.8251
lwrist -35.0118
lhand -22.3711 -27.8053
lfingers 7.12502
lthumb 4.05045 2.13595
rfemur -26.8255 8.36468 27.8621
rtibia 34.5563
rfoot -40.8531 -17.7039
rtoes 3.39687
lfemur -26.2926 4.98515 -13.2599
ltibia 37.3255
lfoot -35.3742 0.288986
ltoes -5.37183
741
root -12.8674 30.2969 -8.78137 306.797 85.1013 -83.4328
lowerback 23.1225 -0.954944 0.894804
upperback 7.74613 -0.37834 1.7018
thorax -4.39456 0.022002 1.40497
lowerneck -3.30769 -1.0402 -4.7146
upperneck -18.9356 -0.188949 4.99881
head -5.11808 0.203745 2.34114
rclavicle 1.55052e-014 3.18055e-014
rhumerus -6.99197 30.8008 -83.3125
rradius 59.0789
rwrist 24.9923
rhand -38.1337 6.07683
rfingers 7.12502
rthumb -11.1682 -23.6059
lclavicle 1.55052e-014 3.18055e-014
lhumerus -14.1222 -20.542 79.7913
lradius 64.8226
lwrist -34.7423
lhand -22.7708 -28.0915
lfingers 7.12502
lthumb 3.66447 1.85679
rfemur -27.0378 8.07433 26.9349
rtibia 34.6462
rfoot -39.6238 -18.3017
rtoes -0.201785
lfemur -26.0918 5.04848 -14.2574
ltibia 36.8808
lfoot -35.2545 1.21137
ltoes -8.17688
742
root -12.8284 30.2893 -8.75717 303.256 84.3673 -86.9957
lowerback 22.8101 -0.708301 1.4749
upperback 7.80178 0.0884097 2.16973
thorax -4.18656 0.250013 1.45415
lowerneck -3.30769 -1.0402 -4.7146
upperneck -18.9356 -0.188949 4.99881
head -5.11808 0.203745 2.34114
rclavicle 2.26615e-014 5.32743e-014
rhumerus -7.1381 30.2196 -82.7515
rradius 58.8038
rwrist 24.7316
rhand -38.7444 7.40984
rfingers 7.12502
rthumb -11.7572 -22.2402
lclavicle 2.26615e-014 5.32743e-014
lhumerus -14.1881 -21.383 80.2442
lradius 64.7278
lwrist -34.5278
lhand -23.2637 -28.0541
lfingers 7.12502
lthumb 3.18846 1.90184
rfemur -26.8287 8.99835 27.7512
rtibia 34.5812
rfoot -38.8394 -19.8591
rtoes -2.39615
lfemur -25.8665 5.43758 -13.344
ltibia 36.6395
lfoot -35.4853 1.67817
ltoes -9.31928
743
root -12.795 30.2917 -8.75458 302.522 84.5202 -87.5343
lowerback 23.0125 -0.969686 0.927372
upperback 7.70872 -0.364243 2.12573
thorax -4.377 0.0247259 1.83918
lowerneck -3.30769 -1.0402 -4.7146
upperneck -18.9356 -0.188949 4.99881
head -5.11808 0.203745 2.34114
rclavicle -7.95139e-015 -1.23246e-014
rhumerus -7.30709 30.6312 -83.873
rradius 57.8766
rwrist 24.8502
rhand -39.4934 10.4587
rfingers 7.12502
rthumb -12.4793 -19.1487
lclavicle -7.95139e-015 -1.23246e-014
lhumerus -15.2132 -21.2086 79.8548
lradius 65.0543
lwrist -34.1276
lhand -23.718 -27.9539
lfingers 7.12502
lthumb 2.74974 2.00809
rfemur -26.474 9.02597 27.7068
rtibia 34.5081
rfoot -38.56 -20.6602
rtoes -3.16376
lfemur -25.4831 5.16661 -13.3214
ltibia 36.4496
lfoot -35.6162 0.4936
ltoes -5.8913
744
root -12.7606 30.3008 -8.75828 302.637 84.5424 -87.321
lowerback 23.0071 -0.919644 0.739984
upperback 7.72847 -0.318351 2.40437
thorax -4.35 0.0444921 2.23517
lowerneck -3.30769 -1.0402 -4.7146
upperneck -18.9356 -0.188949 4.99881
head -5.11808 0.203745 2.34114
rclavicle -9.93923e-015 1.66979e-014
rhumerus -7.27424 30.6385 -83.394
rradius 57.3902
rwrist 24.74
rhand -38.9296 12.4156
rfingers 7.12502
rthumb -11.9358 -17.2242
lclavicle -9.93923e-015 1.66979e-014
lhumerus -15.7639 -21.6375 80.3
lradius 65.3403
lwrist -33.7815
lhand -24.3174 -27.8879
lfingers 7.12502
lthumb 2.17085 2.08079
rfemur -26.2257 9.18792 27.6829
rtibia 34.459
rfoot -43.9696 -11.5702
rtoes 19.3563
lfemur -25.2278 4.56833 -13.115
ltibia 36.3725
lfoot -35.5357 -1.66238
ltoes -0.498565
745
root -12.7334 30.2915 -8.7579 305.388 84.5469 -84.5167
lowerback 22.8523 -0.742091 0.371049
upperback 7.83172 -0.156912 2.60812
thorax -4.16179 0.118685 2.62191
lowerneck -3.30769 -1.0402 -4.7146
upperneck -18.9356 -0.188949 4.99881
head -5.11808 0.203745 2.34114
rclavicle 9.54166e-015 -6.12257e-014
rhumerus -7.24455 31.0397 -82.9831
rradius 57.7656
rwrist 25.1408
rhand -38.3705 9.2235
rfingers 7.12502
rthumb -11.3966 -20.4468
lclavicle 9.54166e-015 -6.12257e-014
lhumerus -15.7846 -21.4828 80.8491
lradius 65.2628
lwrist -34.0002
lhand -24.6883 -27.8682
lfingers 7.12502
lthumb 1.81266 2.10381
rfemur -26.1009 9.67003 27.4797
rtibia 34.5263
rfoot -39.4128 -19.5676
rtoes 1.22187
lfemur -24.8824 4.44659 -13.2503
ltibia 36.1759
lfoot -35.6457 -1.45152
ltoes 0.259283
746
root -12.7149 30.2606 -8.76026 308.166 84.5786 -81.8861
lowerback 22.5001 -0.703123 -0.0242264
upperback 7.82233 -0.205434 2.62566
thorax -3.98938 0.086514 2.8751
lowerneck -3.30769 -1.0402 -4.7146
upperneck -18.9356 -0.188949 4.99881
head -5.11808 0.203745 2.34114
rclavicle -3.97569e-015 -6.34123e-014
rhumerus -7.4429 31.7612 -82.5448
rradius 58.0071
rwrist 23.8797
rhand -38.733 12.3939
rfingers 7.12502
rthumb -11.7462 -17.2568
lclavicle -3.97569e-015 -6.34123e-014
lhumerus -15.9124 -20.815 81.089
lradius 65.064
lwrist -34.3313
lhand -24.7903 -27.8958
lfingers 7.12502
lthumb 1.71409 2.07704
rfemur -26.2954 9.83738 27.2987
rtibia 34.7117
rfoot -43.7398 -12.6575
rtoes 17.8983
lfemur -24.7616 5.17668 -13.8034
ltibia 35.9193
lfoot -35.6473 2.76606
ltoes -8.61224
747
root -12.6869 30.2572 -8.77304 310.822 84.7414 -79.1391
lowerback 22.571 -0.936139 -0.362129
upperback 7.84415 -0.592352 2.37055
thorax -3.97947 -0.103285 2.89176
lowerneck -3.30769 -1.0402 -4.7146
upperneck -18.9356 -0.188949 4.99881
head -5.11808 0.203745 2.34114
rclavicle 3.29983e-014 3.18055e-014
rhumerus -7.51671 32.948 -83.053
rradius 58.7547
rwrist 24.3949
rhand -38.1458 7.537
rfingers 7.12502
rthumb -11.1799 -22.1451
lclavicle 3.29983e-014 3.18055e-014
lhumerus -16.1735 -19.6369 80.8229
lradius 64.7183
lwrist -34.7623
lhand -25.1146 -28.1515
lfingers 7.12502
lthumb 1.40085 1.82365
rfemur -26.2301 9.64961 27.0347
rtibia 34.9686
rfoot -38.9701 -20.2299
rtoes 0.527774
lfemur -24.3617 4.89938 -14.0795
ltibia 35.6119
lfoot -35.5905 2.33736
ltoes -8.24147
748
root -12.658 30.2516 -8.79769 315.119 84.8481 -74.7091
lowerback 22.681 -1.31455 -0.816516
upperback 7.90472 -1.20444 1.87212
thorax -3.93616 -0.401304 2.7697
lowerneck -3.30769 -1.0402 -4.7146
upperneck -18.9356 -0.188949 4.99881
head -5.11808 0.203745 2.34114
rclavicle -4.29375e-014 -1.39149e-014
rhumerus -7.40911 34.0553 -84.1866
rradius 58.8504
rwrist 24.6881
rhand -38.2107 6.20307
rfingers 7.12502
rthumb -11.2425 -23.4757
lclavicle -4.29375e-014 -1.39149e-014
lhumerus -16.6825 -18.7385 79.7898
lradius 64.8038
lwrist -34.6222
lhand -25.3434 -28.2859
lfingers 7.12502
lthumb 1.17989 1.6906
rfemur -26.1033 9.37656 26.6643
rtibia 35.2087
rfoot -43.6366 -11.7183
rtoes 19.6304
lfemur -23.8844 4.86664 -14.5244
ltibia 35.3104
lfoot -35.4938 2.66345
ltoes -9.86361
